<?xml version="1.0" encoding="utf-8"?>
<svg version="1.2" baseProfile="tiny-ps" xmlns="http://www.w3.org/2000/svg" xmlns:xlink="http://www.w3.org/1999/xlink" viewBox="0 0 40 40" xml:space="preserve">
<title>Fresh Faces Rx</title>
<rect fill="#F2F2F2" width="40" height="40"/>
<g>
	<path d="M34.446,27.259c0.258,0,0.629,0.072,0.819,0.216c0.028,0.021,0.065,0.021,0.093,0c0.175-0.133,0.7-0.264,0.94-0.206
		c0.065,0.016,0.124,0.05,0.17,0.096c0.065,0.065,0.106,0.156,0.106,0.256c0,0.152-0.123,0.276-0.276,0.276
		c-0.052,0-0.099-0.018-0.135-0.049c0.014-0.005,0.028-0.012,0.041-0.022c0.068-0.05,0.083-0.147,0.033-0.215
		c-0.05-0.069-0.147-0.083-0.215-0.033c-0.021,0.015-0.037,0.035-0.047,0.057c-0.029,0.059-0.011,0.135,0.014,0.193
		c0.035,0.079,0.1,0.143,0.182,0.176c0.039,0.016,0.082,0.025,0.127,0.025c0.224,0,0.407-0.182,0.407-0.407
		c0-0.136-0.055-0.259-0.144-0.348c-0.089-0.089-0.212-0.144-0.348-0.144H3.787c-0.136,0-0.259,0.055-0.348,0.144
		s-0.144,0.212-0.144,0.348c0,0.224,0.182,0.407,0.407,0.407c0.045,0,0.088-0.009,0.127-0.025c0.082-0.033,0.147-0.097,0.182-0.176
		c0.025-0.057,0.043-0.133,0.014-0.193c-0.01-0.022-0.026-0.041-0.047-0.057c-0.069-0.05-0.165-0.036-0.216,0.033
		c-0.05,0.069-0.036,0.165,0.033,0.215c0.013,0.01,0.027,0.017,0.042,0.022c-0.036,0.031-0.083,0.049-0.135,0.049
		c-0.153,0-0.276-0.123-0.276-0.276c0-0.1,0.04-0.191,0.106-0.256c0.046-0.046,0.105-0.08,0.17-0.096
		c0.24-0.058,0.765,0.073,0.94,0.206c0.028,0.021,0.065,0.021,0.093,0c0.191-0.145,0.561-0.216,0.82-0.216H34.446z"/>
	<g>
		<path d="M5.757,29.115v-1.162H5.638v-0.075h0.363c0.125,0,0.398,0.008,0.398,0.252c0,0.121-0.073,0.215-0.19,0.24v0.004
			c0.259,0.004,0.399,0.175,0.399,0.39c0,0.35-0.326,0.426-0.478,0.426H5.638v-0.075H5.757z M5.914,28.35h0.071
			c0.134,0,0.275-0.034,0.275-0.196c0-0.182-0.15-0.202-0.265-0.202H5.914V28.35z M5.914,29.115h0.138
			c0.156,0,0.398-0.033,0.398-0.355c0-0.292-0.217-0.334-0.409-0.334H5.914V29.115z"/>
		<path d="M7.421,27.847c0.405,0,0.747,0.253,0.747,0.683c0,0.407-0.298,0.69-0.688,0.69c-0.426,0-0.749-0.254-0.749-0.695
			C6.732,28.143,7.029,27.847,7.421,27.847z M8.011,28.592c0-0.361-0.229-0.67-0.599-0.67c-0.307,0-0.522,0.259-0.522,0.555
			c0,0.334,0.211,0.668,0.572,0.668C7.772,29.146,8.011,28.905,8.011,28.592z"/>
		<path d="M9.16,29.055H9.156c-0.081,0.102-0.209,0.165-0.344,0.165c-0.276,0-0.394-0.152-0.394-0.417v-0.851H8.3v-0.075h0.276
			v0.916c0,0.238,0.06,0.351,0.263,0.351c0.179,0,0.309-0.123,0.313-0.304v-0.889H9.037v-0.075H9.31v1.237h0.113v0.075H9.16V29.055z
			"/>
		<path d="M10.244,29.115v0.075H9.812v-0.075H9.95v-1.162c-0.173-0.006-0.265,0.027-0.304,0.202h-0.08l0.063-0.33h0.077
			l-0.008,0.054h0.661l-0.008-0.054h0.077l0.063,0.33h-0.081c-0.038-0.175-0.13-0.208-0.303-0.202v1.162H10.244z"/>
		<path d="M11.021,27.878v0.075h-0.115v1.162h0.115v0.075h-0.388v-0.075h0.115v-1.162h-0.115v-0.075H11.021z"/>
		<path d="M11.351,29.286l0.327-0.092v-0.004c-0.298-0.079-0.503-0.311-0.503-0.662c0-0.384,0.298-0.68,0.69-0.68
			c0.405,0,0.747,0.253,0.747,0.686c0,0.393-0.28,0.67-0.655,0.683c0,0.004,0.271,0.157,0.374,0.157c0.044,0,0.129-0.023,0.182-0.06
			l0.037,0.04c-0.083,0.069-0.177,0.127-0.288,0.127c-0.108,0-0.198-0.052-0.29-0.104c-0.09-0.05-0.182-0.104-0.29-0.104
			c-0.086,0-0.186,0.046-0.265,0.081L11.351,29.286z M11.854,27.922c-0.307,0-0.522,0.255-0.522,0.551
			c0,0.336,0.211,0.668,0.572,0.668c0.311,0,0.549-0.24,0.549-0.553C12.453,28.228,12.225,27.922,11.854,27.922z"/>
		<path d="M13.603,29.055h-0.004c-0.081,0.102-0.209,0.165-0.344,0.165c-0.276,0-0.393-0.152-0.393-0.417v-0.851h-0.119v-0.075
			h0.276v0.916c0,0.238,0.06,0.351,0.263,0.351c0.179,0,0.309-0.123,0.313-0.304v-0.889H13.48v-0.075h0.273v1.237h0.113v0.075
			h-0.263V29.055z"/>
		<path d="M14.043,29.115h0.119v-1.162h-0.119v-0.075h0.81l0.102,0.225L14.9,28.137c-0.077-0.131-0.209-0.184-0.365-0.184H14.32
			v0.407h0.455v-0.112h0.075v0.327h-0.075v-0.131H14.32v0.67h0.073c0.236,0,0.407-0.037,0.53-0.236l0.065,0.023l-0.138,0.292
			c-0.037-0.002-0.081-0.004-0.119-0.004h-0.687V29.115z"/>
		<path d="M15.494,29.189v-0.075h0.094l0.309-0.83c0.05-0.136,0.104-0.265,0.142-0.407h0.161c0.006,0.035,0.017,0.067,0.035,0.113
			l0.411,1.123h0.104v0.075h-0.386v-0.075h0.129l-0.123-0.336h-0.543l-0.125,0.336h0.115v0.075H15.494z M16.097,28.049l-0.24,0.645
			h0.48L16.097,28.049z"/>
		<path d="M16.815,29.115h0.119v-1.162h-0.119v-0.075h0.81l0.102,0.225l-0.056,0.034c-0.077-0.131-0.209-0.184-0.365-0.184h-0.215
			v0.407h0.455v-0.112h0.075v0.327h-0.075v-0.131h-0.455v0.67h0.073c0.236,0,0.407-0.037,0.53-0.236l0.065,0.023l-0.138,0.292
			c-0.036-0.002-0.081-0.004-0.119-0.004h-0.687V29.115z"/>
		<path d="M17.958,28.903c0.094,0.098,0.227,0.225,0.371,0.225c0.167,0,0.317-0.09,0.317-0.276c0-0.221-0.248-0.275-0.442-0.346
			c-0.121-0.044-0.244-0.138-0.244-0.286c0-0.232,0.194-0.372,0.409-0.372c0.129,0,0.213,0.044,0.328,0.094l0.05-0.052l0.042,0.044
			l-0.115,0.15c-0.105-0.079-0.225-0.157-0.363-0.157c-0.117,0-0.244,0.096-0.244,0.219c0,0.198,0.236,0.242,0.426,0.315
			c0.155,0.06,0.259,0.148,0.259,0.319c0,0.251-0.192,0.442-0.442,0.442c-0.188,0-0.338-0.065-0.472-0.198L17.958,28.903z"/>
		<path d="M19.59,29.115v0.075h-0.432v-0.075h0.138v-1.162c-0.173-0.006-0.265,0.027-0.303,0.202h-0.081l0.063-0.33h0.077
			l-0.007,0.054h0.66l-0.008-0.054h0.077l0.063,0.33h-0.081c-0.038-0.175-0.131-0.208-0.303-0.202v1.162H19.59z"/>
		<path d="M19.977,29.189v-0.075h0.119v-1.162h-0.119v-0.075h0.396v0.075h-0.119v0.407h0.551v-0.407h-0.119v-0.075h0.396v0.075
			h-0.119v1.162h0.119v0.075h-0.396v-0.075h0.119v-0.67h-0.551v0.67h0.119v0.075H19.977z"/>
		<path d="M21.257,29.115h0.119v-1.162h-0.119v-0.075h0.811l0.102,0.225l-0.056,0.034c-0.077-0.131-0.209-0.184-0.365-0.184h-0.215
			v0.407h0.455v-0.112h0.075v0.327h-0.075v-0.131h-0.455v0.67h0.073c0.236,0,0.407-0.037,0.53-0.236l0.065,0.023l-0.138,0.292
			c-0.036-0.002-0.081-0.004-0.119-0.004h-0.688V29.115z"/>
		<path d="M23.002,29.115v0.075H22.57v-0.075h0.138v-1.162c-0.173-0.006-0.265,0.027-0.304,0.202h-0.081l0.063-0.33h0.077
			l-0.008,0.054h0.661l-0.008-0.054h0.077l0.063,0.33h-0.081c-0.038-0.175-0.131-0.208-0.303-0.202v1.162H23.002z"/>
		<path d="M23.779,27.878v0.075h-0.115v1.162h0.115v0.075h-0.388v-0.075h0.115v-1.162h-0.115v-0.075H23.779z"/>
		<path d="M25.013,27.945l0.058,0.056l-0.263,0.244l-0.058-0.058c0.036-0.033,0.048-0.06,0.048-0.107
			c0-0.115-0.121-0.157-0.236-0.157c-0.323,0-0.472,0.282-0.472,0.584c0,0.315,0.213,0.589,0.516,0.589
			c0.159,0,0.3-0.056,0.407-0.173l0.058,0.063c-0.127,0.157-0.298,0.234-0.499,0.234c-0.399,0-0.639-0.3-0.639-0.695
			c0-0.355,0.28-0.678,0.637-0.678c0.156,0,0.271,0.048,0.392,0.146L25.013,27.945z"/>
		<path d="M25.61,29.189v-0.075h0.09l0.154-1.162h-0.121v-0.075h0.256c0.006,0.031,0.025,0.102,0.056,0.198l0.276,0.858h0.004
			l0.375-1.056h0.24v0.075h-0.115l0.103,1.023c0.006,0.058,0.014,0.106,0.019,0.138h0.104v0.075h-0.388v-0.075h0.14l-0.098-0.939
			H26.7l-0.359,1.014h-0.088l-0.327-1.004h-0.004L25.8,29.115h0.133v0.075H25.61z"/>
		<path d="M27.189,29.115h0.119v-1.162h-0.119v-0.075h0.81l0.102,0.225l-0.056,0.034c-0.077-0.131-0.209-0.184-0.365-0.184h-0.215
			v0.407h0.455v-0.112h0.075v0.327h-0.075v-0.131h-0.455v0.67h0.073c0.236,0,0.407-0.037,0.53-0.236l0.065,0.023l-0.138,0.292
			c-0.036-0.002-0.08-0.004-0.119-0.004h-0.688V29.115z"/>
		<path d="M28.41,27.953h-0.113v-0.075h0.482c0.398,0,0.618,0.275,0.618,0.655c0,0.432-0.294,0.656-0.641,0.656h-0.465v-0.075h0.119
			V27.953z M28.567,29.115h0.15c0.319,0,0.522-0.192,0.522-0.582c0-0.388-0.225-0.58-0.499-0.58h-0.173V29.115z"/>
		<path d="M29.96,27.878v0.075h-0.115v1.162h0.115v0.075h-0.387v-0.075h0.115v-1.162h-0.115v-0.075H29.96z"/>
		<path d="M31.195,27.945l0.058,0.056l-0.263,0.244l-0.058-0.058c0.037-0.033,0.048-0.06,0.048-0.107
			c0-0.115-0.121-0.157-0.236-0.157c-0.322,0-0.472,0.282-0.472,0.584c0,0.315,0.213,0.589,0.517,0.589
			c0.159,0,0.299-0.056,0.407-0.173l0.058,0.063c-0.127,0.157-0.298,0.234-0.499,0.234c-0.399,0-0.639-0.3-0.639-0.695
			c0-0.355,0.28-0.678,0.637-0.678c0.156,0,0.271,0.048,0.392,0.146L31.195,27.945z"/>
		<path d="M31.772,27.878v0.075h-0.115v1.162h0.115v0.075h-0.388v-0.075h0.115v-1.162h-0.115v-0.075H31.772z"/>
		<path d="M32.075,27.953H31.96v-0.075h0.227c0.013,0.033,0.029,0.062,0.048,0.088l0.62,0.964h0.004v-0.977h-0.134v-0.075h0.361
			v0.075H32.97v1.244h-0.111L32.19,28.16h-0.004v0.954h0.125v0.075h-0.355v-0.075h0.119V27.953z"/>
		<path d="M33.265,29.115h0.119v-1.162h-0.119v-0.075h0.81l0.102,0.225l-0.056,0.034c-0.077-0.131-0.209-0.184-0.365-0.184h-0.215
			v0.407h0.455v-0.112h0.075v0.327h-0.075v-0.131h-0.455v0.67h0.073c0.236,0,0.407-0.037,0.53-0.236l0.065,0.023l-0.138,0.292
			c-0.037-0.002-0.081-0.004-0.119-0.004h-0.688V29.115z"/>
	</g>
	<g>
		<path d="M18.991,32.192c0.263-0.07,0.389-0.356,0.321-0.608c-0.035-0.132-0.12-0.25-0.248-0.324
			c-0.155-0.09-0.332-0.109-0.493-0.066c-0.391,0.104-0.576,0.53-0.476,0.906c0.095,0.358,0.412,0.578,0.768,0.612
			c0.141,0.014,0.283-0.004,0.416-0.05c0.146-0.051,0.276-0.135,0.386-0.242c0.175-0.17,0.292-0.381,0.335-0.607
			c0.044,0.226,0.161,0.438,0.336,0.607c0.109,0.106,0.24,0.191,0.385,0.242c0.132,0.046,0.274,0.064,0.416,0.05
			c0.355-0.034,0.672-0.254,0.767-0.612c0.1-0.375-0.085-0.802-0.476-0.906c-0.161-0.043-0.338-0.024-0.493,0.066
			c-0.127,0.074-0.213,0.193-0.248,0.324c-0.067,0.253,0.058,0.538,0.321,0.608c0.078,0.021,0.186,0.029,0.273-0.003
			c0.084-0.032,0.149-0.103,0.149-0.203c0-0.106-0.086-0.193-0.193-0.193c-0.106,0-0.193,0.086-0.193,0.193
			c0,0.03,0.007,0.06,0.02,0.085c-0.008-0.001-0.016-0.003-0.024-0.005c-0.193-0.051-0.277-0.267-0.229-0.449
			c0.026-0.099,0.091-0.189,0.187-0.245c0.124-0.072,0.266-0.087,0.394-0.053c0.321,0.085,0.464,0.442,0.383,0.747
			c-0.081,0.304-0.353,0.487-0.654,0.516c-0.123,0.012-0.245-0.004-0.36-0.044c-0.127-0.044-0.241-0.118-0.338-0.212
			c-0.303-0.294-0.413-0.73-0.217-1.124c0.212-0.425,0.617-0.593,1.055-0.648c0.16-0.02,0.327-0.026,0.489-0.026h0.184
			c0.403,0,0.828,0.152,1.04,0.427c0.031,0.04,0.087,0.049,0.129,0.022c0.444-0.288,1.106-0.449,1.676-0.449h0.167h0.778
			c0.037,0,0.076,0.001,0.113,0.006c0.089,0.011,0.175,0.043,0.218,0.131c0.023,0.046,0.024,0.094,0.008,0.138
			c-0.028-0.035-0.072-0.057-0.12-0.057c-0.085,0-0.154,0.069-0.154,0.154c0,0.085,0.069,0.154,0.154,0.154
			c0.031,0,0.059-0.009,0.083-0.024c0.028-0.014,0.054-0.033,0.077-0.055c0.099-0.096,0.133-0.24,0.069-0.368
			c-0.064-0.129-0.185-0.185-0.32-0.202c-0.043-0.005-0.087-0.007-0.129-0.007H24.95h-3.196c-0.164,0-0.335,0.006-0.505,0.027
			c-0.483,0.061-0.924,0.252-1.156,0.719c-0.045,0.089-0.075,0.18-0.093,0.272c-0.018-0.091-0.048-0.182-0.093-0.272
			c-0.233-0.467-0.673-0.658-1.156-0.719c-0.17-0.021-0.34-0.027-0.505-0.027H15.05h-0.778c-0.042,0-0.085,0.001-0.129,0.007
			c-0.134,0.017-0.255,0.073-0.32,0.202c-0.063,0.128-0.03,0.272,0.069,0.368c0.022,0.022,0.048,0.041,0.077,0.055
			c0.024,0.015,0.052,0.024,0.083,0.024c0.085,0,0.154-0.069,0.154-0.154c0-0.085-0.069-0.154-0.154-0.154
			c-0.049,0-0.092,0.022-0.12,0.057c-0.016-0.043-0.015-0.092,0.008-0.138c0.043-0.087,0.129-0.119,0.219-0.131
			c0.037-0.005,0.075-0.006,0.113-0.006h0.778h0.167c0.57,0,1.232,0.161,1.676,0.449c0.042,0.027,0.098,0.018,0.129-0.022
			c0.212-0.275,0.637-0.427,1.04-0.427h0.184c0.163,0,0.329,0.006,0.489,0.026c0.439,0.055,0.844,0.223,1.055,0.648
			c0.196,0.393,0.086,0.829-0.217,1.124c-0.097,0.094-0.211,0.168-0.338,0.212c-0.115,0.04-0.238,0.055-0.36,0.044
			c-0.301-0.028-0.573-0.212-0.654-0.516c-0.081-0.304,0.062-0.661,0.383-0.747c0.129-0.034,0.27-0.019,0.394,0.053
			c0.096,0.056,0.161,0.145,0.187,0.245c0.049,0.182-0.036,0.398-0.229,0.449c-0.008,0.002-0.016,0.004-0.023,0.005
			c0.013-0.026,0.02-0.055,0.02-0.085c0-0.106-0.086-0.193-0.193-0.193c-0.107,0-0.193,0.086-0.193,0.193
			c0,0.099,0.065,0.171,0.149,0.203C18.805,32.222,18.913,32.213,18.991,32.192L18.991,32.192z M19.725,33.076
			c-0.111,0.025-0.238,0.039-0.347,0.026c-0.015-0.002-0.026-0.012-0.029-0.027c-0.003-0.015,0.004-0.028,0.017-0.035
			c0.326-0.175,0.441-0.387,0.566-0.637c0.01-0.021,0.048-0.029,0.067-0.029c0.019,0,0.058,0.009,0.068,0.029
			c0.125,0.25,0.239,0.463,0.566,0.637c0.013,0.007,0.02,0.021,0.017,0.035c-0.003,0.015-0.014,0.025-0.029,0.027
			c-0.109,0.013-0.236-0.002-0.347-0.026c-0.022,0.197-0.175,0.351-0.247,0.554C20.023,33.642,20.013,33.65,20,33.65
			c-0.012,0-0.023-0.008-0.027-0.021C19.9,33.426,19.748,33.272,19.725,33.076L19.725,33.076z M20,30.211
			c-0.139,0-0.252-0.113-0.252-0.252c0-0.139,0.113-0.252,0.252-0.252c0.14,0,0.253,0.113,0.253,0.252
			C20.252,30.097,20.139,30.211,20,30.211L20,30.211z M20.684,30.152c-0.054,0-0.102-0.022-0.137-0.056
			c-0.035-0.035-0.056-0.083-0.056-0.136c0-0.053,0.022-0.101,0.056-0.136c0.035-0.035,0.083-0.056,0.137-0.056
			c0.041,0,0.08,0.013,0.112,0.036c0.032,0.022,0.056,0.054,0.069,0.092h7.216c0.128,0,0.254,0.002,0.375,0.021
			c0.124,0.02,0.239,0.057,0.339,0.128c0.288,0.205,0.362,0.561,0.227,0.88c-0.063,0.15-0.185,0.26-0.329,0.317
			c-0.145,0.057-0.311,0.061-0.461-0.003c-0.123-0.052-0.214-0.149-0.261-0.264c-0.09-0.22-0.009-0.494,0.221-0.587
			c0.183-0.075,0.409-0.007,0.487,0.184c0.018,0.04,0.027,0.086,0.025,0.134c-0.004,0.101-0.048,0.216-0.169,0.216
			c-0.085,0-0.154-0.069-0.154-0.154c0-0.085,0.069-0.154,0.154-0.154c0.007,0,0.014,0,0.021,0.001
			c-0.053-0.119-0.2-0.153-0.314-0.106c-0.163,0.066-0.212,0.264-0.15,0.417c0.034,0.084,0.101,0.155,0.191,0.193
			c0.118,0.05,0.249,0.047,0.362,0.002c0.113-0.045,0.208-0.13,0.257-0.246c0.111-0.262,0.055-0.554-0.183-0.723
			c-0.082-0.058-0.178-0.089-0.283-0.106c-0.109-0.017-0.23-0.019-0.355-0.019h-7.216c-0.013,0.037-0.038,0.069-0.069,0.092
			C20.764,30.139,20.725,30.152,20.684,30.152L20.684,30.152z M19.316,30.152c-0.041,0-0.08-0.013-0.112-0.036
			c-0.031-0.022-0.056-0.054-0.069-0.092h-7.216c-0.125,0-0.246,0.002-0.355,0.019c-0.105,0.016-0.201,0.048-0.283,0.106
			c-0.238,0.17-0.294,0.461-0.183,0.723c0.049,0.116,0.144,0.202,0.257,0.246c0.114,0.045,0.245,0.048,0.363-0.002
			c0.09-0.038,0.156-0.109,0.191-0.193c0.063-0.154,0.014-0.351-0.149-0.417c-0.114-0.046-0.262-0.013-0.314,0.106
			c0.007-0.001,0.014-0.001,0.021-0.001c0.085,0,0.154,0.069,0.154,0.154c0,0.085-0.069,0.154-0.154,0.154
			c-0.121,0-0.165-0.115-0.169-0.216c-0.002-0.048,0.007-0.094,0.025-0.134c0.077-0.191,0.304-0.259,0.487-0.184
			c0.23,0.093,0.311,0.367,0.221,0.587c-0.046,0.115-0.137,0.212-0.261,0.264c-0.15,0.064-0.317,0.06-0.461,0.003
			c-0.143-0.057-0.266-0.167-0.329-0.317c-0.135-0.319-0.061-0.675,0.227-0.88c0.1-0.071,0.215-0.109,0.339-0.128
			c0.121-0.019,0.246-0.021,0.375-0.021h7.216c0.013-0.037,0.038-0.069,0.069-0.092c0.031-0.023,0.07-0.036,0.112-0.036
			c0.053,0,0.101,0.022,0.136,0.056c0.035,0.035,0.057,0.083,0.057,0.136c0,0.053-0.022,0.101-0.057,0.136
			C19.417,30.13,19.369,30.152,19.316,30.152z"/>
	</g>
	<g>
		<path d="M4.693,28.227c-0.131,0-0.237,0.106-0.237,0.237c0,0.131,0.106,0.237,0.237,0.237c0.131,0,0.236-0.106,0.236-0.237
			C4.93,28.333,4.824,28.227,4.693,28.227z"/>
		<path d="M35.307,28.227c-0.13,0-0.236,0.106-0.236,0.237c0,0.131,0.106,0.237,0.236,0.237c0.131,0,0.237-0.106,0.237-0.237
			C35.544,28.333,35.438,28.227,35.307,28.227z"/>
	</g>
	<g>
		<path d="M5.311,21.272h1.213c0.244,0,0.497,0,0.837-0.025l0.279,0.629l-0.157,0.071c-0.193-0.391-0.558-0.477-1.04-0.477H6.037
			v1.076h1.126v-0.304h0.198v0.898H7.163v-0.37H6.037v1.771h0.345v0.198H5.311V24.54h0.309V21.47H5.311V21.272z"/>
		<path d="M7.929,24.738V24.54h0.315V21.47H7.939v-0.198h1.324c0.751,0,1.406,0.386,1.406,1.218c0,0.705-0.523,1.091-1.177,1.167
			l0.903,0.883h0.294v0.198h-0.66c-0.446-0.482-0.802-0.817-1.025-1.04H8.66v0.842h0.315v0.198H7.929z M8.66,23.5h0.345
			c0.68,0,1.248-0.188,1.248-1.091c0-0.797-0.721-0.939-1.238-0.939H8.66V23.5z"/>
		<path d="M11.227,24.54h0.315V21.47h-0.315v-0.198h2.141l0.269,0.593l-0.147,0.092c-0.203-0.345-0.553-0.487-0.964-0.487h-0.568
			v1.076h1.202v-0.294h0.198v0.862H13.16v-0.345h-1.202v1.771h0.193c0.624,0,1.076-0.096,1.4-0.624l0.173,0.061l-0.365,0.771
			c-0.096-0.005-0.213-0.01-0.315-0.01h-1.816V24.54z"/>
		<path d="M14.251,23.982c0.249,0.259,0.599,0.594,0.979,0.594c0.441,0,0.837-0.238,0.837-0.731c0-0.583-0.654-0.725-1.167-0.913
			c-0.319-0.117-0.644-0.365-0.644-0.756c0-0.614,0.512-0.984,1.081-0.984c0.34,0,0.563,0.117,0.867,0.249l0.132-0.137l0.112,0.117
			l-0.304,0.396c-0.279-0.208-0.594-0.416-0.959-0.416c-0.309,0-0.644,0.254-0.644,0.578c0,0.523,0.624,0.639,1.126,0.832
			c0.411,0.157,0.685,0.391,0.685,0.842c0,0.665-0.507,1.167-1.167,1.167c-0.497,0-0.893-0.173-1.248-0.523L14.251,23.982z"/>
		<path d="M16.864,24.738V24.54h0.315V21.47h-0.315v-0.198h1.045v0.198h-0.315v1.076h1.456V21.47h-0.314v-0.198h1.045v0.198h-0.315
			v3.069h0.315v0.198h-1.045V24.54h0.314v-1.771h-1.456v1.771h0.315v0.198H16.864z"/>
		<path d="M21.47,21.272h1.213c0.244,0,0.497,0,0.837-0.025l0.279,0.629l-0.157,0.071c-0.193-0.391-0.558-0.477-1.04-0.477h-0.406
			v1.076h1.126v-0.304h0.198v0.898h-0.198v-0.37h-1.126v1.771h0.345v0.198H21.47V24.54h0.31V21.47h-0.31V21.272z"/>
		<path d="M23.617,24.738V24.54h0.249l0.817-2.192c0.132-0.36,0.274-0.7,0.376-1.075h0.426c0.015,0.091,0.045,0.177,0.091,0.299
			l1.086,2.968h0.274v0.198h-1.02V24.54h0.34l-0.325-0.888h-1.436l-0.33,0.888h0.304v0.198H23.617z M25.21,21.724l-0.634,1.705
			h1.268L25.21,21.724z"/>
		<path d="M29.898,21.45l0.152,0.147l-0.695,0.644l-0.152-0.152c0.096-0.086,0.127-0.157,0.127-0.284
			c0-0.305-0.32-0.416-0.624-0.416c-0.852,0-1.248,0.746-1.248,1.542c0,0.832,0.563,1.558,1.365,1.558
			c0.421,0,0.792-0.147,1.076-0.457L30.05,24.2c-0.335,0.416-0.786,0.619-1.319,0.619c-1.055,0-1.69-0.792-1.69-1.837
			c0-0.938,0.741-1.791,1.685-1.791c0.411,0,0.715,0.127,1.035,0.386L29.898,21.45z"/>
		<path d="M30.396,24.54h0.314V21.47h-0.314v-0.198h2.141l0.269,0.593l-0.147,0.092c-0.203-0.345-0.553-0.487-0.964-0.487h-0.568
			v1.076h1.202v-0.294h0.198v0.862h-0.198v-0.345h-1.202v1.771h0.193c0.624,0,1.076-0.096,1.4-0.624l0.173,0.061l-0.365,0.771
			c-0.097-0.005-0.213-0.01-0.315-0.01h-1.816V24.54z"/>
		<path d="M33.419,23.982c0.249,0.259,0.599,0.594,0.979,0.594c0.442,0,0.837-0.238,0.837-0.731c0-0.583-0.655-0.725-1.167-0.913
			c-0.32-0.117-0.644-0.365-0.644-0.756c0-0.614,0.512-0.984,1.081-0.984c0.34,0,0.563,0.117,0.868,0.249l0.132-0.137l0.112,0.117
			l-0.305,0.396c-0.279-0.208-0.594-0.416-0.959-0.416c-0.31,0-0.645,0.254-0.645,0.578c0,0.523,0.624,0.639,1.127,0.832
			c0.411,0.157,0.685,0.391,0.685,0.842c0,0.665-0.508,1.167-1.167,1.167c-0.497,0-0.893-0.173-1.248-0.523L33.419,23.982z"/>
	</g>
	<path d="M35.241,18.782c0.259,0,0.629-0.072,0.819-0.216c0.028-0.021,0.065-0.021,0.093,0c0.175,0.133,0.7,0.264,0.94,0.206
		c0.066-0.016,0.124-0.05,0.17-0.096c0.065-0.065,0.106-0.156,0.106-0.256c0-0.153-0.123-0.276-0.276-0.276
		c-0.052,0-0.099,0.019-0.135,0.049c0.014,0.005,0.028,0.012,0.041,0.022c0.069,0.051,0.083,0.147,0.033,0.215
		c-0.051,0.069-0.147,0.083-0.216,0.032c-0.021-0.015-0.037-0.035-0.047-0.056c-0.029-0.059-0.011-0.135,0.014-0.193
		c0.035-0.079,0.1-0.143,0.182-0.176c0.039-0.016,0.082-0.025,0.127-0.025c0.224,0,0.407,0.182,0.407,0.407
		c0,0.136-0.055,0.259-0.144,0.348c-0.089,0.089-0.212,0.144-0.348,0.144H2.992c-0.136,0-0.259-0.055-0.348-0.144
		C2.555,18.68,2.5,18.557,2.5,18.421c0-0.224,0.182-0.407,0.407-0.407c0.045,0,0.088,0.009,0.127,0.025
		c0.082,0.033,0.147,0.097,0.182,0.176c0.026,0.058,0.043,0.134,0.015,0.193c-0.011,0.022-0.027,0.041-0.047,0.056
		c-0.068,0.051-0.165,0.036-0.216-0.032C2.917,18.363,2.932,18.266,3,18.216c0.013-0.01,0.027-0.017,0.042-0.022
		c-0.036-0.031-0.083-0.049-0.135-0.049c-0.153,0-0.276,0.123-0.276,0.276c0,0.1,0.04,0.19,0.106,0.256
		c0.046,0.046,0.105,0.08,0.17,0.096c0.24,0.058,0.765-0.073,0.94-0.206c0.028-0.021,0.065-0.021,0.093,0
		c0.19,0.145,0.56,0.216,0.819,0.216H35.241z"/>
	<path d="M20,8.241c-1.394,0-2.656,0.565-3.569,1.478c-0.913,0.913-1.478,2.175-1.478,3.57c0,1.394,0.565,2.656,1.478,3.569
		c0.913,0.913,2.176,1.478,3.569,1.478c1.394,0,2.656-0.565,3.57-1.478c0.913-0.913,1.478-2.175,1.478-3.569
		c0-1.394-0.565-2.656-1.478-3.57C22.656,8.806,21.394,8.241,20,8.241L20,8.241z M16.338,9.627C17.275,8.69,18.57,8.11,20,8.11
		c1.43,0,2.725,0.58,3.662,1.517c0.937,0.937,1.517,2.232,1.517,3.662c0,1.43-0.58,2.725-1.517,3.662
		c-0.937,0.937-2.232,1.517-3.662,1.517c-1.43,0-2.724-0.58-3.662-1.517c-0.937-0.937-1.517-2.232-1.517-3.662
		C14.822,11.859,15.401,10.564,16.338,9.627z"/>
	<path fill-rule="evenodd" d="M20,8.835c-0.092,0-0.167,0.075-0.167,0.167S19.908,9.169,20,9.169c0.092,0,0.167-0.075,0.167-0.167
		S20.092,8.835,20,8.835L20,8.835z M20.773,8.903c-0.091-0.016-0.177,0.045-0.193,0.136c-0.016,0.091,0.045,0.177,0.136,0.193
		c0.09,0.016,0.177-0.044,0.193-0.136C20.925,9.006,20.864,8.919,20.773,8.903L20.773,8.903z M21.523,9.104
		c-0.087-0.031-0.182,0.013-0.214,0.1c-0.032,0.087,0.013,0.182,0.1,0.214c0.086,0.032,0.182-0.013,0.214-0.1
		C21.654,9.231,21.61,9.135,21.523,9.104L21.523,9.104z M22.227,9.432c-0.08-0.046-0.182-0.019-0.228,0.061
		c-0.046,0.08-0.019,0.182,0.061,0.228c0.08,0.046,0.182,0.019,0.228-0.061C22.334,9.58,22.307,9.478,22.227,9.432L22.227,9.432z
		 M22.863,9.877c-0.071-0.059-0.176-0.05-0.235,0.021c-0.059,0.07-0.05,0.176,0.021,0.235c0.07,0.059,0.176,0.05,0.235-0.021
		C22.942,10.042,22.933,9.936,22.863,9.877L22.863,9.877z M23.412,10.426c-0.06-0.071-0.165-0.08-0.235-0.021
		c-0.071,0.059-0.08,0.164-0.021,0.235c0.059,0.071,0.165,0.08,0.235,0.02C23.461,10.602,23.471,10.497,23.412,10.426L23.412,10.426
		z M23.857,11.062c-0.046-0.08-0.148-0.107-0.228-0.061c-0.08,0.046-0.107,0.148-0.061,0.228c0.046,0.08,0.148,0.107,0.228,0.061
		C23.875,11.244,23.903,11.142,23.857,11.062L23.857,11.062z M24.185,11.765c-0.032-0.087-0.127-0.131-0.214-0.1
		c-0.087,0.031-0.131,0.127-0.1,0.214c0.032,0.087,0.127,0.131,0.214,0.1C24.172,11.948,24.216,11.852,24.185,11.765L24.185,11.765z
		 M24.386,12.515c-0.016-0.091-0.103-0.151-0.193-0.135c-0.091,0.016-0.152,0.102-0.135,0.193c0.016,0.091,0.102,0.151,0.193,0.135
		C24.341,12.693,24.402,12.606,24.386,12.515L24.386,12.515z M24.453,13.289c0-0.092-0.075-0.167-0.167-0.167
		c-0.092,0-0.167,0.075-0.167,0.167c0,0.092,0.074,0.167,0.167,0.167C24.379,13.456,24.453,13.381,24.453,13.289L24.453,13.289z
		 M24.386,14.062c0.016-0.091-0.045-0.177-0.135-0.193c-0.091-0.016-0.177,0.044-0.193,0.135c-0.016,0.09,0.044,0.177,0.135,0.193
		C24.283,14.213,24.37,14.153,24.386,14.062L24.386,14.062z M24.185,14.812c0.031-0.087-0.013-0.182-0.1-0.214
		c-0.087-0.032-0.182,0.013-0.214,0.1c-0.031,0.086,0.013,0.182,0.1,0.214C24.057,14.943,24.153,14.898,24.185,14.812L24.185,14.812
		z M23.857,15.515c0.046-0.08,0.019-0.182-0.061-0.228c-0.079-0.046-0.182-0.019-0.228,0.061c-0.046,0.08-0.019,0.182,0.061,0.228
		C23.709,15.622,23.811,15.595,23.857,15.515L23.857,15.515z M23.412,16.151c0.059-0.071,0.05-0.176-0.021-0.235
		c-0.07-0.059-0.176-0.05-0.235,0.021c-0.059,0.071-0.05,0.176,0.021,0.235C23.247,16.231,23.352,16.222,23.412,16.151
		L23.412,16.151z M22.863,16.7c0.07-0.059,0.08-0.165,0.02-0.235c-0.059-0.071-0.164-0.08-0.235-0.021
		c-0.071,0.059-0.08,0.164-0.02,0.235C22.686,16.75,22.792,16.759,22.863,16.7L22.863,16.7z M22.227,17.145
		c0.08-0.046,0.107-0.148,0.061-0.228c-0.046-0.08-0.148-0.107-0.228-0.061c-0.08,0.046-0.107,0.148-0.061,0.228
		C22.045,17.164,22.147,17.191,22.227,17.145L22.227,17.145z M21.523,17.474c0.087-0.032,0.131-0.127,0.1-0.214
		c-0.031-0.087-0.127-0.131-0.214-0.1c-0.087,0.031-0.131,0.127-0.1,0.214C21.341,17.46,21.437,17.505,21.523,17.474L21.523,17.474z
		 M20.773,17.674c0.091-0.016,0.151-0.102,0.135-0.193c-0.016-0.091-0.103-0.151-0.193-0.135c-0.09,0.016-0.151,0.102-0.135,0.193
		C20.596,17.63,20.683,17.69,20.773,17.674L20.773,17.674z M20,17.742c0.092,0,0.167-0.075,0.167-0.167
		c0-0.092-0.075-0.167-0.167-0.167c-0.092,0-0.167,0.075-0.167,0.167C19.833,17.667,19.908,17.742,20,17.742L20,17.742z
		 M19.227,17.674c0.091,0.016,0.177-0.045,0.193-0.135c0.016-0.091-0.045-0.177-0.135-0.193c-0.09-0.016-0.177,0.045-0.193,0.135
		C19.075,17.572,19.136,17.658,19.227,17.674L19.227,17.674z M18.477,17.474c0.087,0.031,0.182-0.013,0.214-0.1
		c0.032-0.086-0.013-0.182-0.1-0.214c-0.086-0.032-0.182,0.013-0.214,0.1C18.345,17.346,18.39,17.442,18.477,17.474L18.477,17.474z
		 M17.773,17.145c0.08,0.046,0.182,0.019,0.228-0.061c0.046-0.08,0.019-0.182-0.061-0.228c-0.08-0.046-0.182-0.019-0.228,0.061
		C17.666,16.997,17.693,17.099,17.773,17.145L17.773,17.145z M17.137,16.7c0.071,0.059,0.176,0.05,0.235-0.021
		c0.059-0.071,0.05-0.176-0.021-0.235c-0.071-0.059-0.176-0.05-0.235,0.021C17.058,16.536,17.067,16.641,17.137,16.7L17.137,16.7z
		 M16.588,16.151c0.06,0.071,0.165,0.08,0.235,0.021c0.071-0.059,0.08-0.164,0.02-0.235c-0.059-0.071-0.165-0.08-0.235-0.021
		C16.538,15.975,16.529,16.081,16.588,16.151L16.588,16.151z M16.143,15.515c0.046,0.08,0.148,0.107,0.228,0.061
		c0.08-0.046,0.107-0.148,0.061-0.228c-0.046-0.08-0.148-0.107-0.228-0.061C16.124,15.334,16.097,15.436,16.143,15.515
		L16.143,15.515z M15.815,14.812c0.032,0.087,0.127,0.131,0.214,0.1c0.087-0.031,0.131-0.127,0.1-0.214
		c-0.032-0.086-0.127-0.131-0.214-0.1C15.828,14.629,15.784,14.725,15.815,14.812L15.815,14.812z M15.614,14.062
		c0.016,0.091,0.103,0.151,0.194,0.135c0.091-0.016,0.151-0.102,0.135-0.193c-0.016-0.091-0.102-0.151-0.193-0.135
		C15.659,13.885,15.598,13.971,15.614,14.062L15.614,14.062z M15.547,13.289c0,0.092,0.075,0.167,0.167,0.167
		c0.092,0,0.167-0.075,0.167-0.167s-0.075-0.167-0.167-0.167C15.621,13.122,15.547,13.196,15.547,13.289L15.547,13.289z
		 M15.614,12.515c-0.016,0.091,0.045,0.177,0.136,0.193c0.091,0.016,0.177-0.045,0.193-0.135c0.016-0.091-0.044-0.177-0.135-0.193
		C15.717,12.364,15.63,12.425,15.614,12.515L15.614,12.515z M15.815,11.766c-0.032,0.087,0.013,0.182,0.1,0.214
		c0.087,0.031,0.182-0.013,0.214-0.1c0.032-0.087-0.013-0.183-0.1-0.214C15.942,11.634,15.847,11.679,15.815,11.766L15.815,11.766z
		 M16.143,11.062c-0.046,0.08-0.019,0.182,0.061,0.228c0.08,0.046,0.182,0.019,0.228-0.061c0.046-0.08,0.019-0.182-0.061-0.228
		C16.291,10.955,16.189,10.982,16.143,11.062L16.143,11.062z M16.588,10.426c-0.059,0.071-0.05,0.176,0.021,0.235
		c0.07,0.059,0.176,0.05,0.235-0.021c0.059-0.071,0.05-0.176-0.021-0.235C16.753,10.346,16.648,10.356,16.588,10.426L16.588,10.426z
		 M17.137,9.877c-0.071,0.059-0.08,0.165-0.021,0.235c0.059,0.071,0.165,0.08,0.235,0.021c0.071-0.059,0.08-0.165,0.021-0.235
		C17.313,9.827,17.208,9.818,17.137,9.877L17.137,9.877z M17.773,9.432c-0.08,0.046-0.107,0.148-0.061,0.228
		c0.046,0.08,0.148,0.107,0.228,0.061c0.08-0.046,0.107-0.148,0.061-0.228C17.955,9.413,17.853,9.386,17.773,9.432L17.773,9.432z
		 M18.477,9.104c-0.087,0.032-0.132,0.127-0.1,0.214c0.031,0.087,0.127,0.131,0.214,0.1c0.087-0.031,0.131-0.127,0.1-0.214
		C18.659,9.117,18.563,9.072,18.477,9.104L18.477,9.104z M19.227,8.903c-0.091,0.016-0.151,0.103-0.135,0.193
		c0.016,0.091,0.103,0.151,0.193,0.135c0.091-0.016,0.151-0.102,0.135-0.193C19.404,8.948,19.317,8.887,19.227,8.903z"/>
	<path d="M13.944,17.5c0.015,0.062,0.044,0.118,0.083,0.166c0.068,0.082,0.167,0.139,0.282,0.15c0.139,0.014,0.27-0.031,0.37-0.113
		c0.1-0.082,0.168-0.202,0.182-0.341c0.016-0.169-0.037-0.329-0.137-0.45c-0.1-0.122-0.247-0.205-0.416-0.222
		c-0.111-0.011-0.219,0.003-0.319,0.038c-0.103,0.036-0.197,0.094-0.275,0.168c-0.085,0.082-0.149,0.183-0.192,0.292
		c-0.184,0.473,0.032,1.016,0.515,1.185c0.223,0.078,0.479,0.077,0.69,0.023c0.368-0.093,0.627-0.365,0.871-0.62
		c0.27-0.282,0.52-0.544,0.872-0.483c0.096,0.017,0.184,0.056,0.258,0.112c0.077,0.057,0.139,0.132,0.18,0.216
		c0.056,0.114,0.071,0.239,0.044,0.353c-0.056,0.231-0.288,0.376-0.52,0.338c-0.201-0.033-0.348-0.222-0.289-0.424
		c0.016-0.055,0.049-0.104,0.092-0.137c0.008,0.078,0.073,0.139,0.153,0.139c0.085,0,0.154-0.069,0.154-0.154
		c0-0.116-0.1-0.161-0.197-0.157c-0.064,0.003-0.123,0.024-0.174,0.058c-0.074,0.05-0.128,0.128-0.154,0.215
		c-0.081,0.278,0.115,0.543,0.393,0.589c0.299,0.049,0.596-0.138,0.668-0.435c0.034-0.143,0.016-0.3-0.053-0.441
		c-0.051-0.103-0.126-0.194-0.219-0.263c-0.09-0.068-0.198-0.116-0.314-0.136c-0.379-0.066-0.638,0.159-0.902,0.431
		c0.092-0.225,0.129-0.475,0.115-0.725c-0.042-0.736-0.301-1.436-0.725-2.015c-0.419-0.573-0.998-1.027-1.685-1.28
		c-0.511-0.188-1.072-0.262-1.623-0.221c0.289-0.07,0.574-0.122,0.856-0.174c0.636-0.117,1.548-0.248,2.065-0.659
		c0.15-0.119,0.282-0.264,0.392-0.436c0.111-0.172,0.175-0.365,0.194-0.56c0.02-0.2-0.007-0.403-0.079-0.588
		c-0.098-0.253-0.276-0.46-0.498-0.583c-0.459-0.255-1.041-0.096-1.325,0.339c-0.2,0.305-0.194,0.705,0.044,0.982
		c0.064,0.074,0.143,0.138,0.237,0.184c0.136,0.068,0.293,0.089,0.437,0.055c0.286-0.067,0.48-0.351,0.406-0.641
		c-0.019-0.075-0.069-0.177-0.14-0.246c-0.05-0.05-0.113-0.082-0.176-0.082c-0.106,0-0.193,0.086-0.193,0.193
		s0.086,0.193,0.193,0.193c0.07,0,0.131-0.037,0.165-0.093c0.01,0.022,0.018,0.044,0.024,0.068c0.056,0.219-0.095,0.431-0.309,0.482
		c-0.115,0.027-0.24,0.01-0.35-0.044c-0.078-0.039-0.144-0.091-0.196-0.152c-0.201-0.234-0.203-0.569-0.034-0.826
		c0.247-0.378,0.753-0.518,1.153-0.296c0.195,0.108,0.352,0.291,0.439,0.516c0.065,0.166,0.089,0.349,0.071,0.529
		c-0.017,0.175-0.075,0.348-0.174,0.502c-0.102,0.159-0.224,0.294-0.363,0.404c-0.492,0.391-1.401,0.521-2.008,0.633
		c-1.403,0.258-2.929,0.647-3.609,2.045c-0.214,0.439-0.286,0.896-0.246,1.326c0.036,0.385,0.163,0.748,0.361,1.057
		c-0.071-0.07-0.139-0.141-0.207-0.21c-0.464-0.477-0.887-0.911-1.528-0.811c-0.181,0.028-0.348,0.1-0.49,0.203
		c-0.146,0.106-0.266,0.244-0.347,0.402c-0.111,0.216-0.143,0.458-0.094,0.679c0.103,0.459,0.555,0.754,1.015,0.686
		c0.324-0.048,0.588-0.29,0.632-0.615c0.012-0.087,0.007-0.178-0.018-0.269c-0.036-0.132-0.116-0.251-0.225-0.327
		c-0.05-0.036-0.149-0.078-0.246-0.091c-0.079-0.011-0.159-0.002-0.207,0.041c-0.032,0.028-0.053,0.07-0.053,0.116
		c0,0.085,0.069,0.154,0.154,0.154c0.085,0,0.154-0.069,0.154-0.154c0-0.005,0-0.011-0.001-0.016
		c0.045,0.011,0.086,0.031,0.123,0.057c0.084,0.059,0.146,0.151,0.174,0.255c0.02,0.073,0.024,0.147,0.015,0.218
		c-0.036,0.268-0.256,0.464-0.522,0.504c-0.393,0.058-0.782-0.193-0.87-0.585c-0.043-0.192-0.014-0.403,0.083-0.592
		c0.072-0.14,0.178-0.263,0.307-0.356c0.126-0.091,0.274-0.155,0.434-0.18c0.574-0.09,0.975,0.322,1.415,0.774
		c0.505,0.519,1.059,1.088,1.99,1.069c0.302-0.001,0.585-0.068,0.85-0.221c0.513-0.297,0.843-0.849,0.739-1.457
		c-0.108-0.632-0.677-1.15-1.337-1.038c-0.512,0.087-0.932,0.55-0.841,1.085c0.071,0.417,0.448,0.757,0.883,0.683
		c0.178-0.03,0.345-0.129,0.459-0.289l0.003-0.004l0,0l-0.002-0.001c0.014-0.027,0.022-0.058,0.022-0.091
		c0-0.106-0.086-0.193-0.193-0.193c-0.106,0-0.193,0.086-0.193,0.193c0,0.074,0.041,0.138,0.102,0.17
		c-0.067,0.044-0.143,0.073-0.221,0.087c-0.364,0.062-0.674-0.231-0.732-0.577c-0.079-0.464,0.294-0.859,0.734-0.935
		c0.589-0.101,1.091,0.371,1.187,0.931c0.094,0.554-0.211,1.053-0.676,1.322c-0.478,0.276-1.091,0.262-1.581,0.024
		c-0.313-0.152-0.577-0.393-0.771-0.687c-0.195-0.296-0.32-0.647-0.355-1.02c-0.038-0.407,0.031-0.84,0.233-1.257
		c0.239-0.491,0.606-0.875,1.044-1.151c0.073-0.044,0.145-0.086,0.216-0.125c0.09-0.047,0.183-0.091,0.278-0.13
		c-0.049,0.066-0.087,0.139-0.112,0.215c-0.051,0.152-0.052,0.317,0.011,0.469c0.082,0.198,0.264,0.348,0.476,0.387
		c0.145,0.027,0.304,0.003,0.451-0.094c0.089-0.059,0.153-0.141,0.189-0.233c0.035-0.091,0.061-0.279-0.017-0.363
		c-0.028-0.031-0.069-0.051-0.114-0.051c-0.085,0-0.154,0.069-0.154,0.154c0,0.085,0.069,0.154,0.154,0.154
		c0.009,0,0.018-0.001,0.027-0.002c-0.004,0.021-0.01,0.041-0.018,0.061c-0.027,0.068-0.073,0.128-0.139,0.171
		c-0.116,0.076-0.241,0.096-0.355,0.075c-0.169-0.032-0.314-0.151-0.38-0.309c-0.051-0.122-0.049-0.255-0.008-0.378
		c0.154-0.422,0.67-0.481,1.064-0.516c0.55-0.049,1.113,0.021,1.624,0.209c0.466,0.172,0.881,0.44,1.227,0.777
		c-0.166-0.104-0.35-0.179-0.559-0.22c-0.32-0.062-0.653-0.049-0.945,0.062c-0.261,0.1-0.489,0.278-0.645,0.55
		c-0.135,0.235-0.184,0.503-0.141,0.753c0.09,0.516,0.578,0.869,1.095,0.818c0.364-0.036,0.669-0.291,0.735-0.651
		c0.018-0.096,0.017-0.197-0.006-0.299c-0.033-0.149-0.115-0.284-0.232-0.374c-0.231-0.18-0.574-0.153-0.753,0.086
		c-0.057,0.076-0.092,0.168-0.098,0.265c-0.004,0.07,0.002,0.153,0.049,0.209c0.035,0.043,0.089,0.07,0.149,0.07
		c0.106,0,0.193-0.086,0.193-0.193c0-0.107-0.086-0.193-0.193-0.193c-0.015,0-0.03,0.002-0.044,0.005
		c0.012-0.031,0.028-0.06,0.048-0.086c0.135-0.181,0.395-0.196,0.569-0.061c0.093,0.072,0.158,0.18,0.185,0.3
		c0.019,0.085,0.02,0.168,0.005,0.248c-0.056,0.302-0.316,0.514-0.62,0.545c-0.45,0.045-0.876-0.261-0.954-0.71
		c-0.038-0.22,0.006-0.456,0.126-0.665c0.14-0.244,0.344-0.403,0.578-0.493c0.268-0.102,0.576-0.114,0.874-0.056
		c0.29,0.056,0.531,0.187,0.738,0.369c0.607,0.532,0.897,1.333,0.942,2.125c0.015,0.253-0.028,0.505-0.13,0.727
		c-0.094,0.204-0.24,0.382-0.438,0.51c-0.271,0.174-0.642,0.234-0.947,0.121c-0.098-0.036-0.187-0.091-0.261-0.162
		c-0.214-0.21-0.263-0.563-0.156-0.838c0.036-0.092,0.09-0.177,0.161-0.245c0.064-0.062,0.142-0.11,0.227-0.139
		c0.082-0.029,0.172-0.04,0.264-0.031c0.133,0.013,0.249,0.079,0.328,0.175c0.079,0.096,0.121,0.222,0.108,0.355
		c-0.01,0.103-0.061,0.192-0.135,0.253c-0.074,0.061-0.172,0.094-0.275,0.084c-0.08-0.008-0.148-0.046-0.198-0.109
		c0.107,0.003,0.194-0.087,0.194-0.193c0-0.106-0.086-0.193-0.193-0.193c-0.08,0-0.148,0.049-0.178,0.118
		C13.924,17.367,13.93,17.444,13.944,17.5L13.944,17.5z M26.056,17.5c-0.015,0.062-0.044,0.118-0.083,0.166
		c-0.068,0.082-0.167,0.139-0.282,0.15c-0.139,0.014-0.27-0.031-0.37-0.113c-0.1-0.082-0.168-0.202-0.181-0.341
		c-0.017-0.169,0.037-0.329,0.137-0.45c0.1-0.122,0.247-0.205,0.416-0.222c0.111-0.011,0.22,0.003,0.319,0.038
		c0.103,0.036,0.197,0.094,0.275,0.168c0.086,0.082,0.15,0.183,0.192,0.292c0.184,0.473-0.032,1.016-0.515,1.185
		c-0.224,0.078-0.48,0.077-0.69,0.023c-0.368-0.093-0.628-0.365-0.871-0.62c-0.27-0.282-0.52-0.544-0.873-0.483
		c-0.095,0.017-0.183,0.056-0.258,0.112c-0.077,0.057-0.139,0.132-0.18,0.216c-0.056,0.114-0.071,0.239-0.043,0.353
		c0.056,0.231,0.288,0.376,0.521,0.338c0.2-0.033,0.348-0.222,0.289-0.424c-0.016-0.055-0.049-0.104-0.093-0.137
		c-0.007,0.078-0.073,0.139-0.153,0.139c-0.085,0-0.154-0.069-0.154-0.154c0-0.116,0.1-0.161,0.198-0.157
		c0.064,0.003,0.123,0.024,0.174,0.058c0.073,0.05,0.128,0.128,0.154,0.215c0.081,0.278-0.115,0.543-0.393,0.589
		c-0.3,0.049-0.596-0.138-0.668-0.435c-0.035-0.143-0.016-0.3,0.053-0.441c0.051-0.103,0.127-0.194,0.219-0.263
		c0.091-0.068,0.198-0.116,0.314-0.136c0.379-0.066,0.638,0.159,0.902,0.431c-0.092-0.225-0.129-0.475-0.115-0.725
		c0.042-0.736,0.302-1.436,0.725-2.015c0.419-0.573,0.998-1.027,1.685-1.28c0.511-0.188,1.072-0.262,1.623-0.221
		c-0.289-0.07-0.573-0.122-0.856-0.174c-0.636-0.117-1.548-0.248-2.065-0.659c-0.15-0.119-0.282-0.264-0.392-0.436
		c-0.11-0.172-0.175-0.365-0.194-0.56c-0.02-0.2,0.006-0.403,0.079-0.588c0.098-0.253,0.276-0.46,0.497-0.583
		c0.46-0.255,1.041-0.096,1.325,0.339c0.2,0.305,0.194,0.705-0.044,0.982c-0.064,0.074-0.143,0.138-0.238,0.184
		c-0.136,0.068-0.293,0.089-0.437,0.055c-0.285-0.067-0.481-0.351-0.406-0.641c0.019-0.075,0.069-0.177,0.14-0.246
		c0.051-0.05,0.113-0.082,0.176-0.082c0.106,0,0.193,0.086,0.193,0.193s-0.086,0.193-0.193,0.193c-0.07,0-0.131-0.037-0.165-0.093
		c-0.01,0.022-0.018,0.044-0.025,0.068c-0.056,0.219,0.095,0.431,0.31,0.482c0.115,0.027,0.24,0.01,0.35-0.044
		c0.078-0.039,0.143-0.091,0.196-0.152c0.201-0.234,0.202-0.569,0.034-0.826c-0.247-0.378-0.753-0.518-1.153-0.296
		c-0.195,0.108-0.352,0.291-0.439,0.516c-0.065,0.166-0.089,0.349-0.071,0.529c0.017,0.175,0.075,0.348,0.174,0.502
		c0.102,0.159,0.224,0.294,0.364,0.404c0.492,0.391,1.401,0.521,2.008,0.633c1.403,0.258,2.929,0.647,3.609,2.045
		c0.214,0.439,0.286,0.896,0.246,1.326c-0.036,0.385-0.163,0.748-0.362,1.057c0.07-0.07,0.14-0.141,0.207-0.21
		c0.464-0.477,0.887-0.911,1.528-0.811c0.181,0.028,0.348,0.1,0.49,0.203c0.146,0.106,0.266,0.244,0.347,0.402
		c0.111,0.216,0.144,0.458,0.094,0.679c-0.103,0.459-0.555,0.754-1.015,0.686c-0.324-0.048-0.588-0.29-0.632-0.615
		c-0.012-0.087-0.007-0.178,0.018-0.269c0.036-0.132,0.116-0.251,0.225-0.327c0.051-0.036,0.149-0.078,0.246-0.091
		c0.08-0.011,0.159-0.002,0.207,0.041c0.032,0.028,0.053,0.07,0.053,0.116c0,0.085-0.069,0.154-0.154,0.154
		s-0.154-0.069-0.154-0.154c0-0.005,0-0.011,0.001-0.016c-0.045,0.011-0.086,0.031-0.124,0.057
		c-0.084,0.059-0.146,0.151-0.174,0.255c-0.02,0.073-0.024,0.147-0.015,0.218c0.036,0.268,0.256,0.464,0.522,0.504
		c0.393,0.058,0.782-0.193,0.87-0.585c0.043-0.192,0.014-0.403-0.083-0.592c-0.072-0.14-0.178-0.263-0.307-0.356
		c-0.126-0.091-0.274-0.155-0.434-0.18c-0.574-0.09-0.975,0.322-1.415,0.774c-0.505,0.519-1.059,1.088-1.991,1.069
		c-0.301-0.001-0.585-0.068-0.85-0.221c-0.513-0.297-0.843-0.849-0.74-1.457c0.108-0.632,0.677-1.15,1.337-1.038
		c0.512,0.087,0.932,0.55,0.84,1.085c-0.071,0.417-0.448,0.757-0.883,0.683c-0.179-0.03-0.345-0.129-0.459-0.289l-0.003-0.004v0
		l0.003-0.001c-0.015-0.027-0.023-0.058-0.023-0.091c0-0.106,0.086-0.193,0.193-0.193s0.193,0.086,0.193,0.193
		c0,0.074-0.041,0.138-0.102,0.17c0.067,0.044,0.142,0.073,0.22,0.087c0.364,0.062,0.674-0.231,0.733-0.577
		c0.079-0.464-0.294-0.859-0.734-0.935c-0.589-0.101-1.091,0.371-1.187,0.931c-0.094,0.554,0.211,1.053,0.677,1.322
		c0.478,0.276,1.091,0.262,1.581,0.024c0.313-0.152,0.577-0.393,0.771-0.687c0.195-0.296,0.32-0.647,0.355-1.02
		c0.038-0.407-0.031-0.84-0.234-1.257c-0.239-0.491-0.606-0.875-1.044-1.151c-0.073-0.044-0.145-0.086-0.217-0.125
		c-0.09-0.047-0.183-0.091-0.278-0.13c0.049,0.066,0.087,0.139,0.112,0.215c0.051,0.152,0.052,0.317-0.011,0.469
		c-0.082,0.198-0.264,0.348-0.476,0.387c-0.145,0.027-0.304,0.003-0.45-0.094c-0.089-0.059-0.153-0.141-0.189-0.233
		c-0.035-0.091-0.06-0.279,0.017-0.363c0.028-0.031,0.069-0.051,0.114-0.051c0.085,0,0.154,0.069,0.154,0.154
		c0,0.085-0.069,0.154-0.154,0.154c-0.009,0-0.019-0.001-0.027-0.002c0.004,0.021,0.01,0.041,0.018,0.061
		c0.026,0.068,0.073,0.128,0.139,0.171c0.116,0.076,0.241,0.096,0.355,0.075c0.169-0.032,0.314-0.151,0.379-0.309
		c0.05-0.122,0.049-0.255,0.008-0.378c-0.154-0.422-0.67-0.481-1.065-0.516c-0.55-0.049-1.113,0.021-1.624,0.209
		c-0.466,0.172-0.881,0.44-1.227,0.777c0.166-0.104,0.351-0.179,0.559-0.22c0.321-0.062,0.653-0.049,0.945,0.062
		c0.261,0.1,0.489,0.278,0.645,0.55c0.135,0.235,0.184,0.503,0.141,0.753c-0.09,0.516-0.578,0.869-1.095,0.818
		c-0.363-0.036-0.669-0.291-0.735-0.651c-0.017-0.096-0.017-0.197,0.006-0.299c0.033-0.149,0.116-0.284,0.232-0.374
		c0.232-0.18,0.574-0.153,0.753,0.086c0.057,0.076,0.091,0.168,0.098,0.265c0.004,0.07-0.003,0.153-0.049,0.209
		c-0.035,0.043-0.089,0.07-0.149,0.07c-0.106,0-0.193-0.086-0.193-0.193c0-0.107,0.086-0.193,0.193-0.193
		c0.015,0,0.03,0.002,0.043,0.005c-0.012-0.031-0.028-0.06-0.048-0.086c-0.135-0.181-0.395-0.196-0.568-0.061
		c-0.093,0.072-0.158,0.18-0.185,0.3c-0.019,0.085-0.019,0.168-0.005,0.248c0.056,0.302,0.315,0.514,0.62,0.545
		c0.449,0.045,0.875-0.261,0.954-0.71c0.039-0.22-0.005-0.456-0.125-0.665c-0.14-0.244-0.344-0.403-0.579-0.493
		c-0.268-0.102-0.575-0.114-0.873-0.056c-0.291,0.056-0.53,0.187-0.739,0.369c-0.607,0.532-0.897,1.333-0.942,2.125
		c-0.014,0.253,0.028,0.505,0.131,0.727c0.094,0.204,0.24,0.382,0.438,0.51c0.27,0.174,0.642,0.234,0.947,0.121
		c0.098-0.036,0.187-0.091,0.261-0.162c0.214-0.21,0.262-0.563,0.156-0.838c-0.036-0.092-0.089-0.177-0.161-0.245
		c-0.064-0.062-0.142-0.11-0.227-0.139c-0.082-0.029-0.172-0.04-0.264-0.031c-0.133,0.013-0.249,0.079-0.328,0.175
		c-0.079,0.096-0.121,0.222-0.108,0.355c0.01,0.103,0.061,0.192,0.135,0.253c0.074,0.061,0.172,0.094,0.275,0.084
		c0.08-0.008,0.148-0.046,0.198-0.109c-0.106,0.003-0.194-0.087-0.194-0.193c0-0.106,0.086-0.193,0.193-0.193
		c0.08,0,0.148,0.049,0.178,0.118C26.076,17.367,26.07,17.444,26.056,17.5z"/>
	<g>
		<path fill-rule="evenodd" d="M24.287,8.821c-0.044-0.042-0.116-0.038-0.161,0.01c-0.042,0.046-0.043,0.117-0.001,0.158
			c0.042,0.041,0.113,0.038,0.158-0.007C24.329,8.936,24.332,8.864,24.287,8.821z"/>
		<path fill-rule="evenodd" d="M24.014,8.562c-0.049-0.041-0.123-0.033-0.166,0.02c-0.041,0.051-0.037,0.124,0.01,0.164
			c0.046,0.04,0.12,0.032,0.163-0.017C24.065,8.678,24.063,8.604,24.014,8.562z"/>
		<path fill-rule="evenodd" d="M23.717,8.314c-0.053-0.04-0.129-0.026-0.17,0.031c-0.04,0.056-0.03,0.131,0.02,0.169
			c0.051,0.038,0.126,0.026,0.168-0.028C23.778,8.432,23.771,8.355,23.717,8.314z"/>
		<path fill-rule="evenodd" d="M23.399,8.08c-0.058-0.038-0.135-0.018-0.174,0.043c-0.037,0.061-0.023,0.137,0.032,0.173
			c0.055,0.036,0.132,0.019,0.172-0.04C23.469,8.198,23.457,8.118,23.399,8.08z"/>
		<path fill-rule="evenodd" d="M23.058,7.862c-0.063-0.035-0.141-0.01-0.177,0.056c-0.035,0.065-0.014,0.143,0.045,0.177
			c0.059,0.034,0.137,0.01,0.175-0.053C23.139,7.979,23.121,7.898,23.058,7.862z"/>
		<path fill-rule="evenodd" d="M22.695,7.663c-0.067-0.032-0.147-0.001-0.178,0.07c-0.031,0.07-0.005,0.149,0.059,0.179
			c0.064,0.03,0.142,0.002,0.177-0.066C22.786,7.778,22.763,7.695,22.695,7.663z"/>
		<path fill-rule="evenodd" d="M22.311,7.485c-0.072-0.029-0.151,0.009-0.179,0.084c-0.027,0.074,0.006,0.154,0.074,0.181
			c0.068,0.027,0.146-0.008,0.177-0.081C22.414,7.596,22.383,7.514,22.311,7.485z"/>
		<path fill-rule="evenodd" d="M21.907,7.331c-0.076-0.024-0.155,0.02-0.178,0.1c-0.023,0.078,0.017,0.158,0.088,0.181
			c0.072,0.023,0.15-0.019,0.177-0.096C22.021,7.438,21.983,7.355,21.907,7.331z"/>
		<path fill-rule="evenodd" d="M21.483,7.203c-0.08-0.02-0.158,0.032-0.176,0.115C21.29,7.4,21.336,7.479,21.412,7.497
			c0.076,0.018,0.153-0.03,0.175-0.111C21.609,7.304,21.564,7.222,21.483,7.203z"/>
		<path fill-rule="evenodd" d="M21.043,7.104c-0.084-0.014-0.16,0.045-0.172,0.131c-0.012,0.086,0.041,0.163,0.121,0.176
			c0.079,0.013,0.155-0.042,0.172-0.127C21.18,7.198,21.127,7.118,21.043,7.104z"/>
		<path fill-rule="evenodd" d="M24.975,9.646c-0.032-0.043-0.095-0.05-0.141-0.015c-0.044,0.033-0.055,0.096-0.025,0.137
			c0.03,0.041,0.093,0.05,0.138,0.018C24.993,9.753,25.008,9.69,24.975,9.646z"/>
		<path fill-rule="evenodd" d="M15.462,9.089c0.04-0.043,0.109-0.043,0.155,0.001c0.043,0.042,0.048,0.11,0.01,0.151
			c-0.038,0.041-0.106,0.042-0.151,0.002C15.428,9.202,15.421,9.133,15.462,9.089z"/>
		<path fill-rule="evenodd" d="M15.713,8.821c0.044-0.042,0.116-0.038,0.161,0.01c0.043,0.046,0.043,0.117,0,0.158
			c-0.042,0.041-0.113,0.038-0.157-0.007C15.671,8.936,15.668,8.864,15.713,8.821z"/>
		<path fill-rule="evenodd" d="M15.986,8.562c0.049-0.041,0.123-0.033,0.166,0.02c0.042,0.051,0.037,0.124-0.009,0.163
			c-0.046,0.04-0.119,0.032-0.163-0.017C15.935,8.678,15.937,8.604,15.986,8.562z"/>
		<path fill-rule="evenodd" d="M16.283,8.314c0.053-0.04,0.129-0.026,0.17,0.031c0.04,0.056,0.03,0.131-0.02,0.169
			c-0.051,0.038-0.126,0.026-0.168-0.028C16.222,8.432,16.229,8.355,16.283,8.314z"/>
		<path fill-rule="evenodd" d="M16.601,8.08c0.058-0.038,0.135-0.018,0.174,0.043c0.038,0.061,0.023,0.137-0.032,0.173
			c-0.055,0.036-0.132,0.019-0.172-0.04C16.531,8.198,16.543,8.118,16.601,8.08z"/>
		<path fill-rule="evenodd" d="M16.942,7.862c0.063-0.035,0.141-0.01,0.177,0.056c0.035,0.065,0.014,0.143-0.045,0.177
			c-0.059,0.034-0.137,0.01-0.175-0.053C16.861,7.979,16.879,7.898,16.942,7.862z"/>
		<path fill-rule="evenodd" d="M17.305,7.663c0.067-0.032,0.146-0.001,0.178,0.07c0.031,0.07,0.005,0.149-0.059,0.179
			c-0.064,0.03-0.142,0.002-0.177-0.066C17.213,7.778,17.237,7.695,17.305,7.663z"/>
		<path fill-rule="evenodd" d="M17.689,7.485c0.071-0.028,0.151,0.009,0.179,0.085c0.027,0.074-0.006,0.154-0.073,0.181
			c-0.068,0.027-0.146-0.008-0.177-0.081C17.586,7.596,17.617,7.514,17.689,7.485z"/>
		<path fill-rule="evenodd" d="M18.094,7.331c0.076-0.024,0.155,0.02,0.178,0.1c0.023,0.078-0.017,0.158-0.089,0.181
			c-0.072,0.023-0.15-0.018-0.177-0.096C17.979,7.438,18.017,7.355,18.094,7.331z"/>
		<path fill-rule="evenodd" d="M18.517,7.203c0.08-0.02,0.158,0.032,0.176,0.115c0.017,0.083-0.029,0.161-0.104,0.179
			c-0.076,0.018-0.153-0.03-0.175-0.112C18.391,7.304,18.436,7.222,18.517,7.203z"/>
		<path fill-rule="evenodd" d="M18.957,7.104c0.084-0.014,0.16,0.045,0.172,0.131c0.012,0.086-0.041,0.163-0.121,0.177
			c-0.079,0.013-0.155-0.042-0.172-0.127C18.82,7.198,18.873,7.118,18.957,7.104z"/>
		<path fill-rule="evenodd" d="M15.025,9.646c0.032-0.043,0.095-0.05,0.142-0.015c0.044,0.033,0.055,0.096,0.025,0.137
			c-0.03,0.041-0.093,0.05-0.138,0.018C15.007,9.753,14.993,9.69,15.025,9.646z"/>
		<path fill-rule="evenodd" d="M15.232,9.365c0.036-0.043,0.102-0.047,0.148-0.008c0.044,0.038,0.052,0.103,0.018,0.144
			c-0.034,0.041-0.099,0.046-0.145,0.01C15.207,9.475,15.196,9.41,15.232,9.365z"/>
		<path fill-rule="evenodd" d="M24.768,9.365c-0.036-0.043-0.102-0.047-0.148-0.007c-0.044,0.038-0.052,0.103-0.018,0.144
			c0.034,0.042,0.1,0.046,0.145,0.01C24.793,9.475,24.804,9.41,24.768,9.365z"/>
		<path fill-rule="evenodd" d="M24.539,9.089c-0.04-0.043-0.109-0.043-0.155,0.001c-0.043,0.042-0.048,0.11-0.01,0.151
			c0.038,0.041,0.106,0.042,0.151,0.002C24.572,9.202,24.579,9.133,24.539,9.089z"/>
		<path fill-rule="evenodd" d="M19.951,6.376C19.962,6.361,19.978,6.35,20,6.35c0.02,0,0.038,0.01,0.047,0.026
			c0.095,0.162,0.183,0.326,0.265,0.491c0.009,0.023,0.034,0.035,0.057,0.028c0.1-0.026,0.201-0.051,0.304-0.072
			c0.021-0.005,0.041,0.002,0.052,0.021c0.013,0.017,0.013,0.037,0.004,0.054c-0.101,0.152-0.196,0.306-0.286,0.462
			c-0.009,0.02-0.025,0.029-0.044,0.027C20.266,7.378,20.133,7.374,20,7.374c-0.133,0-0.265,0.005-0.398,0.013
			c-0.019,0.001-0.035-0.008-0.044-0.027c-0.089-0.156-0.184-0.31-0.286-0.462c-0.01-0.017-0.009-0.037,0.002-0.054
			c0.011-0.019,0.031-0.026,0.052-0.021c0.102,0.021,0.204,0.046,0.304,0.072c0.023,0.006,0.047-0.005,0.059-0.029
			C19.77,6.702,19.857,6.537,19.951,6.376z"/>
	</g>
	<path d="M23.36,9.928C22.5,9.068,21.312,8.536,20,8.536c-1.312,0-2.5,0.532-3.36,1.392c-0.86,0.86-1.392,2.048-1.392,3.361
		c0,1.312,0.532,2.5,1.392,3.36c0.86,0.86,2.048,1.392,3.36,1.392c1.313,0,2.501-0.532,3.361-1.392
		c0.86-0.86,1.392-2.048,1.392-3.36C24.753,11.977,24.22,10.788,23.36,9.928z M23.268,16.557c-0.836,0.836-1.992,1.354-3.268,1.354
		c-1.276,0-2.432-0.517-3.268-1.354c-0.836-0.836-1.353-1.992-1.353-3.268c0-1.276,0.517-2.432,1.353-3.268
		C17.568,9.184,18.724,8.667,20,8.667c1.277,0,2.432,0.517,3.268,1.354c0.836,0.836,1.354,1.992,1.354,3.268
		C24.622,14.565,24.104,15.721,23.268,16.557z M22.794,10.495C22.079,9.78,21.091,9.338,20,9.338c-1.091,0-2.079,0.442-2.794,1.157
		c-0.715,0.715-1.157,1.703-1.157,2.794c0,1.091,0.442,2.079,1.157,2.794c0.715,0.715,1.703,1.157,2.794,1.157
		c1.091,0,2.079-0.442,2.794-1.157c0.715-0.715,1.157-1.703,1.157-2.794C23.951,12.198,23.509,11.21,22.794,10.495z M22.702,15.991
		C22.01,16.682,21.055,17.11,20,17.11c-1.055,0-2.01-0.428-2.702-1.119c-0.691-0.691-1.119-1.647-1.119-2.702
		c0-1.055,0.427-2.01,1.119-2.702C17.99,9.896,18.945,9.468,20,9.468c1.055,0,2.011,0.428,2.702,1.119
		c0.691,0.691,1.119,1.647,1.119,2.702C23.821,14.344,23.393,15.299,22.702,15.991z"/>
	<g>
		<path d="M21.849,15.519l-1.026-1.137l0.769-0.957h0.23l0.006-0.204h-0.785l-0.006,0.204h0.18l-0.593,0.737l-1.293-1.431
			c0.536-0.084,0.866-0.43,0.866-0.914c0-0.584-0.434-0.962-1.105-0.962h-1.126v0.215h0.315v3.395H17.96v0.215h0.945v-0.215h-0.24
			v-1.695h0.217c0.124,0.128,0.819,0.906,1.491,1.659l0.019,0.021l-0.858,1.067h-0.23l-0.004,0.203h0.785l0.004-0.203h-0.18
			l0.68-0.846l0.011,0.012c0.262,0.293,0.545,0.61,0.746,0.834h-0.092l-0.004,0.203h0.785l0.004-0.203H21.849z M18.665,11.071h0.239
			c0.416,0,0.913,0.119,0.913,0.684c0,0.705-0.465,0.8-0.921,0.8h-0.231V11.071z"/>
	</g>
	<g>
		<path d="M36.36,26.512H3.639v-0.256c0-0.342-0.278-0.619-0.619-0.619H2.763v-5.23H3.02c0.342,0,0.619-0.278,0.619-0.619V19.53
			H36.36v0.257c0,0.341,0.278,0.619,0.619,0.619h0.257v5.23h-0.257c-0.342,0-0.619,0.278-0.619,0.619V26.512z M3.821,26.33h32.358
			v-0.075c0-0.442,0.359-0.801,0.801-0.801h0.075v-4.867h-0.075c-0.442,0-0.801-0.359-0.801-0.801v-0.075H3.821v0.075
			c0,0.442-0.359,0.801-0.801,0.801H2.945v4.867H3.02c0.442,0,0.801,0.359,0.801,0.801V26.33z"/>
	</g>
</g>
</svg>
